<svg version="1.1" viewBox="0.0 0.0 877.1207349081365 195.3517060367454" fill="none" stroke="none" stroke-linecap="square" stroke-miterlimit="10" xmlns:xlink="http://www.w3.org/1999/xlink" xmlns="http://www.w3.org/2000/svg"><clipPath id="p.0"><path d="m0 0l877.1207 0l0 195.3517l-877.1207 0l0 -195.3517z" clip-rule="nonzero"/></clipPath><g clip-path="url(#p.0)"><path fill="#000000" fill-opacity="0.0" d="m0 0l877.1207 0l0 195.3517l-877.1207 0z" fill-rule="evenodd"/><g filter="url(#shadowFilter-p.1)"><use xlink:href="#p.1" transform="matrix(1.0 0.0 0.0 1.0 0.0 2.0)"/></g><defs><filter id="shadowFilter-p.1" filterUnits="userSpaceOnUse"><feGaussianBlur in="SourceAlpha" stdDeviation="2.0" result="blur"/><feComponentTransfer in="blur" color-interpolation-filters="sRGB"><feFuncR type="linear" slope="0" intercept="0.0"/><feFuncG type="linear" slope="0" intercept="0.0"/><feFuncB type="linear" slope="0" intercept="0.0"/><feFuncA type="linear" slope="0.5" intercept="0"/></feComponentTransfer></filter></defs><g id="p.1"><path fill="#000000" fill-opacity="0.0" d="m6.3884516 47.7979l866.1418 0l0 106.99213l-866.1418 0z" fill-rule="evenodd"/><path fill="#000000" d="m72.4197 143.00478q1.34375 1.25 1.34375 2.78125q0 1.34375 -1.109375 2.453125q-1.109375 1.109375 -2.546875 1.109375q-1.25 0 -2.59375 -1.15625l-35.90625 -31.390633l0 28.609383q0 1.8125 -1.0625 2.921875q-1.046875 1.109375 -2.875 1.109375q-1.8125 0 -2.875 -1.109375q-1.046875 -1.109375 -1.046875 -2.921875l0 -60.578133q0 -1.828125 1.046875 -2.921875q1.0625 -1.109375 2.875 -1.109375q1.828125 0 2.875 1.109375q1.0625 1.09375 1.0625 2.921875l0 27.546875l34.28125 -30.4375q1.046875 -1.046875 2.484375 -1.046875q1.453125 0 2.5 1.109375q1.0625 1.09375 1.0625 2.4375q0 1.4375 -1.25 2.6875l-31.015625 27.265625l32.75 28.609383zm29.553604 -41.953133q17.578125 0 17.578125 18.4375l0 26.109383q0 1.734375 -1.015625 2.796875q-1.0 1.046875 -2.734375 1.046875q-1.71875 0 -2.78125 -1.046875q-1.0625 -1.0625 -1.0625 -2.796875l0 -4.609375q-1.8125 4.125 -5.5625 6.390625q-3.75 2.25 -8.640625 2.25q-4.515625 0 -8.3125 -1.8125q-3.78125 -1.828125 -6.0 -5.09375q-2.203125 -3.265625 -2.203125 -7.203125q0 -5.28125 2.6875 -8.203133q2.6875 -2.9375 8.828125 -4.234375q6.15625 -1.296875 17.09375 -1.296875l2.109375 0l0 -3.171875q0 -5.75 -2.359375 -8.4375q-2.34375 -2.6875 -7.625 -2.6875q-6.515625 0 -13.234375 3.546875q-2.59375 1.640625 -3.65625 1.640625q-1.15625 0 -1.921875 -0.859375q-0.765625 -0.875 -0.765625 -2.21875q0 -1.34375 0.8125 -2.34375q0.828125 -1.015625 2.640625 -2.078125q3.359375 -1.921875 7.625 -3.015625q4.28125 -1.109375 8.5 -1.109375zm-3.15625 42.437508q5.75 0 9.4375 -3.890625q3.703125 -3.890625 3.703125 -10.03125l0 -2.7812576l-1.71875 0q-8.453125 0 -12.875 0.71875q-4.40625 0.7187576 -6.28125 2.4062576q-1.875 1.671875 -1.875 4.9375q0 3.734375 2.734375 6.1875q2.75 2.453125 6.875 2.453125zm58.083107 -42.250008q4.03125 -0.28125 4.03125 3.265625q0 1.546875 -0.875 2.453125q-0.859375 0.90625 -2.96875 1.109375l-2.890625 0.28125q-6.421875 0.578125 -9.546875 4.5625q-3.125 3.984375 -3.125 9.359375l0 23.328133q0 1.921875 -1.0625 2.890625q-1.046875 0.953125 -2.765625 0.953125q-1.734375 0 -2.84375 -1.0q-1.09375 -1.015625 -1.09375 -2.84375l0 -40.515633q0 -1.828125 1.140625 -2.828125q1.15625 -1.015625 2.796875 -1.015625q1.53125 0 2.578125 1.015625q1.0625 1.0 1.0625 2.734375l0 5.375q2.015625 -4.21875 5.703125 -6.421875q3.703125 -2.21875 8.5 -2.59375l1.359375 -0.109375zm14.68486 48.203133q-1.734375 0 -2.84375 -1.0q-1.09375 -1.015625 -1.09375 -2.84375l0 -40.515633q0 -1.828125 1.09375 -2.828125q1.109375 -1.015625 2.84375 -1.015625q1.71875 0 2.765625 1.015625q1.0625 1.0 1.0625 2.828125l0 40.515633q0 1.921875 -1.0625 2.890625q-1.046875 0.953125 -2.765625 0.953125zm-0.015625 -58.281258q-2.296875 0 -3.734375 -1.34375q-1.4375 -1.34375 -1.4375 -3.546875q0 -2.109375 1.4375 -3.453125q1.4375 -1.34375 3.734375 -1.34375q2.3125 0 3.75 1.34375q1.4375 1.34375 1.4375 3.453125q0 2.203125 -1.4375 3.546875q-1.4375 1.34375 -3.75 1.34375zm34.084488 58.468758q-4.40625 0 -8.390625 -1.046875q-3.984375 -1.0625 -7.0625 -2.984375q-1.71875 -1.15625 -2.453125 -2.15625q-0.71875 -1.015625 -0.71875 -2.453125q0 -1.25 0.71875 -2.0625q0.734375 -0.8125 1.875 -0.8125q1.15625 0 3.359375 1.4375q2.890625 1.71875 5.71875 2.734375q2.828125 1.015625 7.0625 1.015625q5.171875 0 8.046875 -1.828125q2.890625 -1.828125 2.890625 -5.28125q0 -2.109375 -1.0625 -3.40625q-1.046875 -1.296875 -3.640625 -2.296875q-2.59375 -1.015625 -7.578125 -2.078125q-8.453125 -1.8281326 -12.109375 -4.8906326q-3.640625 -3.078125 -3.640625 -8.359375q0 -4.125 2.296875 -7.28125q2.3125 -3.171875 6.390625 -5.0q4.078125 -1.828125 9.265625 -1.828125q3.734375 0 7.234375 1.015625q3.515625 1.0 6.203125 2.828125q3.265625 2.296875 3.265625 4.796875q0 1.25 -0.765625 2.125q-0.765625 0.859375 -1.828125 0.859375q-1.15625 0 -3.453125 -1.640625q-2.6875 -1.71875 -5.09375 -2.671875q-2.390625 -0.96875 -5.953125 -0.96875q-4.5 0 -7.25 2.015625q-2.734375 2.015625 -2.734375 5.375q0 2.109375 1.0 3.40625q1.015625 1.296875 3.359375 2.3125q2.359375 1.0 6.78125 1.953125q6.53125 1.4375 10.125 3.171875q3.609375 1.734375 5.140625 4.2343826q1.53125 2.484375 1.53125 6.328125q0 6.046875 -5.09375 9.75q-5.078125 3.6875 -13.4375 3.6875zm53.95497 -48.578133q8.265625 0 12.484375 4.65625q4.21875 4.65625 4.21875 13.875l0 26.015633q0 1.828125 -1.0625 2.84375q-1.046875 1.0 -2.765625 1.0q-1.828125 0 -2.890625 -1.0q-1.046875 -1.015625 -1.046875 -2.84375l0 -25.828133q0 -6.234375 -2.546875 -9.203125q-2.546875 -2.984375 -8.109375 -2.984375q-6.4374847 0 -10.281235 3.9375q-3.84375 3.9375 -3.84375 10.65625l0 23.421883q0 1.828125 -1.015625 2.84375q-1.0 1.0 -2.8125 1.0q-1.828125 0 -2.890625 -1.0q-1.046875 -1.015625 -1.046875 -2.84375l0 -61.062508q0 -1.625 1.09375 -2.671875q1.109375 -1.0625 2.84375 -1.0625q1.8125 0 2.8125 1.015625q1.015625 1.0 1.015625 2.71875l0 25.15625q2.3125 -4.21875 6.4375 -6.421875q4.125 -2.21875 9.406235 -2.21875zm82.94986 0q15.546875 0 15.546875 18.53125l0 26.015633q0 1.828125 -1.0625 2.84375q-1.046875 1.0 -2.78125 1.0q-1.71875 0 -2.828125 -1.0q-1.09375 -1.015625 -1.09375 -2.84375l0 -25.828133q0 -6.421875 -2.3125 -9.296875q-2.296875 -2.890625 -7.203125 -2.890625q-5.859375 0 -9.21875 3.9375q-3.359375 3.9375 -3.359375 10.65625l0 23.421883q0 1.828125 -1.109375 2.84375q-1.09375 1.0 -2.828125 1.0q-1.71875 0 -2.78125 -1.0q-1.046875 -1.015625 -1.046875 -2.84375l0 -25.828133q0 -6.421875 -2.3125 -9.296875q-2.296875 -2.890625 -7.296875 -2.890625q-5.75 0 -9.171875 3.9375q-3.40625 3.9375 -3.40625 10.65625l0 23.421883q0 1.828125 -1.0625 2.84375q-1.046875 1.0 -2.765625 1.0q-1.734375 0 -2.84375 -1.0q-1.09375 -1.015625 -1.09375 -2.84375l0 -40.515633q0 -1.71875 1.09375 -2.78125q1.109375 -1.0625 2.84375 -1.0625q1.625 0 2.671875 1.015625q1.0625 1.0 1.0625 2.734375l0 4.609375q2.109375 -4.125 5.859375 -6.328125q3.75 -2.21875 8.640625 -2.21875q10.9375 0 14.3125 9.21875q2.015625 -4.21875 6.140625 -6.71875q4.125 -2.5 9.40625 -2.5zm48.85446 0q17.578125 0 17.578125 18.4375l0 26.109383q0 1.734375 -1.015625 2.796875q-1.0 1.046875 -2.734375 1.046875q-1.71875 0 -2.78125 -1.046875q-1.0625 -1.0625 -1.0625 -2.796875l0 -4.609375q-1.8125 4.125 -5.5625 6.390625q-3.75 2.25 -8.640625 2.25q-4.515625 0 -8.3125 -1.8125q-3.78125 -1.828125 -6.0 -5.09375q-2.203125 -3.265625 -2.203125 -7.203125q0 -5.28125 2.6875 -8.203133q2.6875 -2.9375 8.828125 -4.234375q6.15625 -1.296875 17.09375 -1.296875l2.109375 0l0 -3.171875q0 -5.75 -2.359375 -8.4375q-2.34375 -2.6875 -7.625 -2.6875q-6.515625 0 -13.234375 3.546875q-2.59375 1.640625 -3.65625 1.640625q-1.15625 0 -1.921875 -0.859375q-0.765625 -0.875 -0.765625 -2.21875q0 -1.34375 0.8125 -2.34375q0.828125 -1.015625 2.640625 -2.078125q3.359375 -1.921875 7.625 -3.015625q4.28125 -1.109375 8.5 -1.109375zm-3.15625 42.437508q5.75 0 9.4375 -3.890625q3.703125 -3.890625 3.703125 -10.03125l0 -2.7812576l-1.71875 0q-8.453125 0 -12.875 0.71875q-4.40625 0.7187576 -6.28125 2.4062576q-1.875 1.671875 -1.875 4.9375q0 3.734375 2.734375 6.1875q2.75 2.453125 6.875 2.453125z" fill-rule="nonzero"/><path fill="#6fa8dc" d="m444.608 149.44228q-2.40625 0.1875 -3.65625 -0.671875q-1.25 -0.875 -1.25 -2.59375q0 -3.171875 3.5625 -3.265625l2.875 -0.1875q4.890625 -0.296875 7.296875 -3.03125q2.40625 -2.734375 2.40625 -8.78125l0 -46.078133q0 -1.828125 1.140625 -2.921875q1.15625 -1.109375 2.796875 -1.109375q1.8125 0 2.859375 1.109375q1.0625 1.09375 1.0625 2.921875l0 46.171883q0 8.828125 -4.03125 13.296875q-4.03125 4.46875 -12.1875 4.9375l-2.875 0.203125zm54.04599 0.1875q-6.625 0 -11.671875 -2.96875q-5.03125 -2.984375 -7.765625 -8.5q-2.734375 -5.515625 -2.734375 -12.812508q0 -7.296875 2.734375 -12.8125q2.734375 -5.53125 7.765625 -8.5q5.046875 -2.984375 11.671875 -2.984375q6.625 0 11.703125 2.984375q5.09375 2.96875 7.828125 8.5q2.734314 5.515625 2.734314 12.8125q0 7.2968826 -2.734314 12.812508q-2.734375 5.515625 -7.828125 8.5q-5.078125 2.96875 -11.703125 2.96875zm0 -6.4375q6.90625 0 10.59375 -4.546875q3.703125 -4.5625 3.703125 -13.296883q0 -8.546875 -3.75 -13.203125q-3.734375 -4.65625 -10.546875 -4.65625q-6.8125 0 -10.5625 4.65625q-3.75 4.65625 -3.75 13.203125q0 8.640633 3.703125 13.250008q3.703125 4.59375 10.609375 4.59375zm57.49872 -42.140633q8.265625 0 12.484375 4.65625q4.21875 4.65625 4.21875 13.875l0 26.015633q0 1.828125 -1.0625 2.84375q-1.046875 1.0 -2.765625 1.0q-1.828125 0 -2.890625 -1.0q-1.046875 -1.015625 -1.046875 -2.84375l0 -25.828133q0 -6.234375 -2.546875 -9.203125q-2.546875 -2.984375 -8.109375 -2.984375q-6.4375 0 -10.28125 3.9375q-3.84375 3.9375 -3.84375 10.65625l0 23.421883q0 1.828125 -1.015625 2.84375q-1.0 1.0 -2.8125 1.0q-1.828125 0 -2.890625 -1.0q-1.046875 -1.015625 -1.046875 -2.84375l0 -61.062508q0 -1.625 1.09375 -2.671875q1.109375 -1.0625 2.84375 -1.0625q1.8125 0 2.8125 1.015625q1.015625 1.0 1.015625 2.71875l0 25.15625q2.3125 -4.21875 6.4375 -6.421875q4.125 -2.21875 9.40625 -2.21875zm54.434204 0q16.796875 0 16.796875 18.53125l0 26.015633q0 1.828125 -1.015625 2.84375q-1.0 1.0 -2.8125 1.0q-1.828125 0 -2.890625 -1.0q-1.046875 -1.015625 -1.046875 -2.84375l0 -25.531258q0 -6.53125 -2.546875 -9.5q-2.546875 -2.984375 -8.109375 -2.984375q-6.4375 0 -10.28125 3.9375q-3.84375 3.9375 -3.84375 10.65625l0 23.421883q0 1.828125 -1.015625 2.84375q-1.0 1.0 -2.8125 1.0q-1.828125 0 -2.890625 -1.0q-1.046875 -1.015625 -1.046875 -2.84375l0 -40.515633q0 -1.71875 1.046875 -2.78125q1.0625 -1.0625 2.890625 -1.0625q1.71875 0 2.71875 1.0625q1.015625 1.0625 1.015625 2.6875l0 4.890625q2.3125 -4.3125 6.4375 -6.5625q4.125 -2.265625 9.40625 -2.265625zm46.746704 48.578133q-4.40625 0 -8.390625 -1.046875q-3.984375 -1.0625 -7.0625 -2.984375q-1.71875 -1.15625 -2.453125 -2.15625q-0.71875 -1.015625 -0.71875 -2.453125q0 -1.25 0.71875 -2.0625q0.734375 -0.8125 1.875 -0.8125q1.15625 0 3.359375 1.4375q2.890625 1.71875 5.71875 2.734375q2.828125 1.015625 7.0625 1.015625q5.171875 0 8.046875 -1.828125q2.890625 -1.828125 2.890625 -5.28125q0 -2.109375 -1.0625 -3.40625q-1.046875 -1.296875 -3.640625 -2.296875q-2.59375 -1.015625 -7.578125 -2.078125q-8.453125 -1.8281326 -12.109375 -4.8906326q-3.640625 -3.078125 -3.640625 -8.359375q0 -4.125 2.296875 -7.28125q2.3125 -3.171875 6.390625 -5.0q4.078125 -1.828125 9.265625 -1.828125q3.734375 0 7.234375 1.015625q3.515625 1.0 6.203125 2.828125q3.265625 2.296875 3.265625 4.796875q0 1.25 -0.765625 2.125q-0.765625 0.859375 -1.828125 0.859375q-1.15625 0 -3.453125 -1.640625q-2.6875 -1.71875 -5.09375 -2.671875q-2.390625 -0.96875 -5.953125 -0.96875q-4.5 0 -7.25 2.015625q-2.734375 2.015625 -2.734375 5.375q0 2.109375 1.0 3.40625q1.015625 1.296875 3.359375 2.3125q2.359375 1.0 6.78125 1.953125q6.53125 1.4375 10.125 3.171875q3.609375 1.734375 5.140625 4.2343826q1.53125 2.484375 1.53125 6.328125q0 6.046875 -5.09375 9.75q-5.078125 3.6875 -13.4375 3.6875zm49.736206 0q-6.625 0 -11.671875 -2.96875q-5.03125 -2.984375 -7.765625 -8.5q-2.734375 -5.515625 -2.734375 -12.812508q0 -7.296875 2.734375 -12.8125q2.734375 -5.53125 7.765625 -8.5q5.046875 -2.984375 11.671875 -2.984375q6.625 0 11.703125 2.984375q5.09375 2.96875 7.828125 8.5q2.734375 5.515625 2.734375 12.8125q0 7.2968826 -2.734375 12.812508q-2.734375 5.515625 -7.828125 8.5q-5.078125 2.96875 -11.703125 2.96875zm0 -6.4375q6.90625 0 10.59375 -4.546875q3.703125 -4.5625 3.703125 -13.296883q0 -8.546875 -3.75 -13.203125q-3.734375 -4.65625 -10.546875 -4.65625q-6.8125 0 -10.5625 4.65625q-3.75 4.65625 -3.75 13.203125q0 8.640633 3.703125 13.250008q3.703125 4.59375 10.609375 4.59375zm57.40503 -42.140633q16.796875 0 16.796875 18.53125l0 26.015633q0 1.828125 -1.015625 2.84375q-1.0 1.0 -2.8125 1.0q-1.828125 0 -2.890625 -1.0q-1.046875 -1.015625 -1.046875 -2.84375l0 -25.531258q0 -6.53125 -2.546875 -9.5q-2.546875 -2.984375 -8.109375 -2.984375q-6.4375 0 -10.28125 3.9375q-3.84375 3.9375 -3.84375 10.65625l0 23.421883q0 1.828125 -1.015625 2.84375q-1.0 1.0 -2.8125 1.0q-1.828125 0 -2.890625 -1.0q-1.046875 -1.015625 -1.046875 -2.84375l0 -40.515633q0 -1.71875 1.046875 -2.78125q1.0625 -1.0625 2.890625 -1.0625q1.71875 0 2.71875 1.0625q1.015625 1.0625 1.015625 2.6875l0 4.890625q2.3125 -4.3125 6.4375 -6.5625q4.125 -2.265625 9.40625 -2.265625z" fill-rule="nonzero"/></g></g></svg>